C:\Users\r0593348\3dpredictsim\Results\Batchsim_tmt_linear\Pog_s1_tmt_aCst_d00_k250_ig24_act_GRF.mot
nRows=10
nColumns=19

name C:\Users\r0593348\3dpredictsim\Results\Batchsim_tmt_linear\Pog_s1_tmt_aCst_d00_k250_ig24_act_GRF.mot
datacolumns 19
datarows 10
range 0.0000000000 0.1099939534
endheader
time 	ground_force_vx	ground_force_vy	ground_force_vz	ground_force_px	ground_force_py	ground_force_pz	1_ground_force_vx	1_ground_force_vy	1_ground_force_vz	1_ground_force_px	1_ground_force_py	1_ground_force_pz	ground_torque_x	ground_torque_y	ground_torque_z	1_ground_torque_x	1_ground_torque_y	1_ground_torque_z
        0.0000000000	      -21.7232021560	       21.3217231411	       12.1575928436	        0.1814332584	        0.0000000000	        0.0528765306	       70.1726555913	      384.9766484858	       -2.9904511181	       -0.3580751141	        0.0000000000	       -0.0265264974	        0.0000000000	        0.0000000000	        0.0000000000	        0.0000000000	        0.0000000000	        0.0000000000	
        0.0122215504	      -57.7311200880	       95.5993974846	       72.7702550510	        0.1863355962	        0.0000000000	        0.0506774982	       44.4003213503	      284.5867136413	      -14.1162546449	       -0.3473558063	        0.0000000000	       -0.0224828661	        0.0000000000	        0.0000000000	        0.0000000000	        0.0000000000	        0.0000000000	        0.0000000000	
        0.0244431008	      -29.5125146632	      269.0928105491	       35.9427106966	        0.1899293010	        0.0000000000	        0.0476523258	       30.4088736034	      224.0478486543	      -19.4020120642	       -0.3376417354	        0.0000000000	       -0.0182884915	        0.0000000000	        0.0000000000	        0.0000000000	        0.0000000000	        0.0000000000	        0.0000000000	
        0.0366646511	      -37.4843487979	      483.7282037298	       -0.9421489109	        0.1937237054	        0.0000000000	        0.0472658042	       25.4520942652	      194.9599549513	      -19.7979029325	       -0.3376896249	        0.0000000000	       -0.0183073347	        0.0000000000	        0.0000000000	        0.0000000000	        0.0000000000	        0.0000000000	        0.0000000000	
        0.0488862015	      -86.4719642869	      742.5194405709	      -16.3291017782	        0.2047976561	        0.0000000000	        0.0495345148	       14.8014640687	      152.1731749669	      -20.9286134145	       -0.3378293686	        0.0000000000	       -0.0184510227	        0.0000000000	        0.0000000000	        0.0000000000	        0.0000000000	        0.0000000000	        0.0000000000	
        0.0611077519	     -123.4108039349	      904.9165862603	      -17.4515522115	        0.2125188640	        0.0000000000	        0.0511843616	       -1.1379633615	       86.7015224280	      -22.7114658803	       -0.3384394374	        0.0000000000	       -0.0192748817	        0.0000000000	        0.0000000000	        0.0000000000	        0.0000000000	        0.0000000000	        0.0000000000	
        0.0733293023	     -132.9743871792	      937.2580161572	      -17.6436626479	        0.2175206273	        0.0000000000	        0.0520777863	      -10.7585353762	       14.0132194307	       -6.0958284289	       -0.3433960751	        0.0000000000	       -0.0197420976	        0.0000000000	        0.0000000000	        0.0000000000	        0.0000000000	        0.0000000000	        0.0000000000	
        0.0855508526	     -116.5478590871	      897.9310283867	      -17.8956645593	        0.2216758340	        0.0000000000	        0.0525057725	        0.9134779111	       -0.7389082587	        0.0568625396	        0.0000000000	        0.0000000000	        0.0000000000	        0.0000000000	        0.0000000000	        0.0000000000	        0.0000000000	        0.0000000000	        0.0000000000	
        0.0977724030	     -101.6873383548	      828.8083819778	      -19.0662170359	        0.2262315651	        0.0000000000	        0.0525645322	      -17.0929463620	       12.0191059521	       -0.1798122627	       -0.3214046867	        0.0000000000	       -0.0155305141	        0.0000000000	        0.0000000000	        0.0000000000	        0.0000000000	        0.0000000000	        0.0000000000	
        0.1099939534	      -92.3598955542	      774.5658626067	      -19.2400352286	        0.2320452655	        0.0000000000	        0.0523042570	      -18.1894728648	       11.2153585692	        0.4788498426	       -0.3013597941	        0.0000000000	       -0.0158188807	        0.0000000000	        0.0000000000	        0.0000000000	        0.0000000000	        0.0000000000	        0.0000000000	
